<svg width="206" height="206" viewBox="0 0 206 206" fill="none" xmlns="http://www.w3.org/2000/svg">
<path d="M124.219 69.8491L126.017 69.1027C130.125 67.3975 134.505 66.3546 138.951 66.457C145.212 66.6005 148.521 67.3641 153.344 69.7784C163.506 74.8651 170.103 83.2922 172.82 94.6566C173.54 97.6695 173.644 99.0627 173.466 103.339C173.224 109.137 172.443 112.278 169.951 117.476C167.966 121.615 165.948 124.356 162.321 127.839C157.491 132.477 152.152 135.334 145.16 137.022C141.486 137.909 133.947 137.902 130.246 137.01C119.428 134.401 110.165 127.101 105.506 117.511L104.625 115.697L108.239 110.752C110.227 108.032 111.953 105.802 112.075 105.795C112.197 105.789 112.513 106.814 112.777 108.073C113.667 112.317 115.957 116.232 119.785 120.056C123.698 123.964 126.625 125.644 131.848 126.98C140.462 129.183 149.597 126.581 156.06 120.084C161.33 114.786 163.555 109.322 163.541 101.709C163.535 98.1238 163.353 96.9022 162.418 94.1745C159.609 85.9723 153.64 79.9827 145.707 77.4033C142.932 76.5011 141.679 76.3328 137.729 76.3324C136.868 76.3323 136.013 76.3825 135.2 76.4614C131.595 76.8115 128.27 78.395 125.196 80.311C121.46 82.6398 118.136 85.5824 115.499 89.1082C114.648 90.2469 113.773 91.4393 112.998 92.5405C106.301 102.056 96.5005 116.232 93.5609 120.657C87.9107 129.16 80.1746 134.683 70.6379 137.022C66.7012 137.988 58.5918 137.963 54.8059 136.974C47.6835 135.113 42.6751 132.225 37.4878 126.988C31.6873 121.132 28.3312 114.19 27.2628 105.838C25.117 89.0679 36.5494 72.0587 53.037 67.4896C57.6273 66.2174 57.6709 66.2317 58.2569 69.212C58.5323 70.613 59.1065 72.6756 59.5323 73.7962C59.9581 74.9168 60.3065 75.9502 60.3065 76.0928C60.3069 76.2358 59.439 76.4824 58.3783 76.6417C53.6356 77.3527 48.4642 80.1293 44.6343 84.0212C39.8708 88.8613 37.3598 94.9349 37.3219 101.709C37.2955 106.426 37.8883 109.017 40.0203 113.495C43.9827 121.818 53.5626 127.788 62.9556 127.788C66.1902 127.788 70.9512 126.611 74.3264 124.977C79.8576 122.3 81.2422 120.678 95.2299 100.486C99.7186 94.0069 103.975 87.8267 106.406 84.2919C107.799 82.2661 109.37 80.3731 111.106 78.6321C114.857 74.8706 119.313 71.886 124.219 69.8491Z" fill="#5E72E4"/>
<path d="M85.3996 26.5392C88.5536 25.0857 91.9504 24.0062 94.978 23.4953C104.058 21.9631 114.453 24.5836 121.998 30.3068C124.921 32.5239 128.507 36.1916 130.214 38.7091C133.307 43.2709 135.84 49.9785 136.426 55.1576L136.699 57.5699L132.478 58.0454C130.156 58.307 127.858 58.6326 127.371 58.7687C126.571 58.992 126.46 58.8245 126.227 57.041C125.493 51.4226 124.032 47.6611 120.993 43.57C117.784 39.249 112.51 35.7361 107.053 34.2838C103.79 33.4155 97.5908 33.4126 94.2319 34.2773C85.2383 36.5934 78.0152 43.8947 75.6974 53.0122C74.9057 56.1274 74.9057 62.1541 75.6974 65.2693C77.9769 74.236 85.4436 81.7101 94.3953 83.9851C95.718 84.3212 96.883 84.679 96.984 84.7801C97.3186 85.1146 91.2666 93.5732 90.6929 93.5732C89.3058 93.5732 83.4979 90.9339 80.7502 89.055C65.8102 78.8389 60.4804 60.1452 67.9178 44.0479C71.4046 36.5009 77.8995 29.9963 85.3996 26.5392Z" fill="#97A4ED"/>
<path d="M5.00003 161.499C5.00003 159.866 5.28729 158.271 5.8618 156.714C6.43631 155.132 7.2731 153.7 8.37217 152.419C9.49622 151.113 10.8576 150.084 12.4562 149.33C14.0548 148.551 15.8658 148.162 17.8891 148.162C20.2871 148.162 22.3603 148.715 24.1088 149.82C25.8573 150.9 27.1562 152.294 28.0055 154.002L24.7083 156.224C24.2087 155.144 23.5718 154.29 22.7974 153.663C22.0481 153.035 21.2238 152.595 20.3245 152.344C19.4503 152.093 18.5885 151.967 17.7392 151.967C16.3404 151.967 15.1164 152.256 14.0673 152.834C13.0182 153.386 12.1315 154.127 11.4071 155.056C10.7077 155.986 10.1706 157.028 9.79596 158.183C9.44626 159.339 9.27141 160.494 9.27141 161.649C9.27141 162.93 9.48373 164.174 9.90837 165.379C10.333 166.56 10.92 167.614 11.6694 168.544C12.4437 169.448 13.3554 170.164 14.4046 170.691C15.4537 171.219 16.6027 171.482 17.8516 171.482C18.7009 171.482 19.5877 171.332 20.5119 171.03C21.4361 170.729 22.2854 170.264 23.0597 169.636C23.859 168.983 24.4835 168.129 24.9331 167.074L28.4177 169.071C27.8681 170.402 27.0064 171.533 25.8324 172.462C24.6833 173.391 23.3844 174.094 21.9357 174.572C20.5119 175.049 19.1006 175.287 17.7018 175.287C15.8283 175.287 14.1173 174.898 12.5686 174.119C11.0199 173.316 9.68356 172.261 8.55951 170.955C7.43546 169.624 6.56121 168.142 5.93674 166.509C5.31227 164.852 5.00003 163.181 5.00003 161.499Z" fill="#97A4ED"/>
<path d="M42.9776 158.937C41.3789 158.962 39.9551 159.326 38.7062 160.029C37.4822 160.733 36.608 161.725 36.0834 163.006V175.061H31.9619V155.358H35.7837V159.766C36.4581 158.409 37.3449 157.329 38.4439 156.526C39.543 155.697 40.7045 155.245 41.9285 155.17C42.1783 155.17 42.3781 155.17 42.528 155.17C42.7028 155.17 42.8527 155.182 42.9776 155.207V158.937Z" fill="#97A4ED"/>
<path d="M46.8377 179.695C47.2124 179.745 47.5746 179.796 47.9243 179.846C48.2989 179.921 48.5987 179.959 48.8235 179.959C49.2481 179.959 49.6103 179.821 49.9101 179.545C50.2348 179.293 50.5595 178.816 50.8842 178.113C51.209 177.41 51.6086 176.392 52.0832 175.061L44.0276 155.358H48.3364L54.3313 170.842L59.6518 155.358H63.6234L54.7435 179.62C54.4687 180.348 54.069 181.014 53.5445 181.617C53.0199 182.244 52.3705 182.734 51.5961 183.086C50.8218 183.437 49.9101 183.613 48.861 183.613C48.5612 183.613 48.249 183.588 47.9243 183.538C47.5995 183.488 47.2373 183.412 46.8377 183.312V179.695Z" fill="#97A4ED"/>
<path d="M77.9691 175.438C76.3954 175.438 75.0091 175.061 73.8101 174.308C72.6111 173.554 71.6619 172.575 70.9625 171.369V183.086H66.841V155.358H70.4754V158.899C71.2248 157.719 72.199 156.777 73.398 156.074C74.5969 155.37 75.9333 155.019 77.4071 155.019C78.7559 155.019 79.9924 155.295 81.1164 155.848C82.2405 156.375 83.2146 157.116 84.0389 158.07C84.8632 159.025 85.5002 160.117 85.9498 161.348C86.4244 162.554 86.6617 163.835 86.6617 165.191C86.6617 167.074 86.287 168.795 85.5377 170.352C84.8133 171.909 83.7891 173.153 82.4653 174.082C81.1664 174.986 79.6676 175.438 77.9691 175.438ZM76.6202 171.897C77.4945 171.897 78.2813 171.708 78.9807 171.332C79.7051 170.955 80.3171 170.453 80.8167 169.825C81.3412 169.197 81.7409 168.481 82.0157 167.677C82.2904 166.874 82.4278 166.045 82.4278 165.191C82.4278 164.287 82.2779 163.433 81.9782 162.629C81.6784 161.825 81.2413 161.122 80.6668 160.519C80.1173 159.916 79.4678 159.439 78.7184 159.088C77.9941 158.736 77.1947 158.56 76.3205 158.56C75.7959 158.56 75.2464 158.661 74.6719 158.862C74.0974 159.062 73.5603 159.339 73.0607 159.69C72.5612 160.042 72.124 160.456 71.7494 160.934C71.3747 161.411 71.1124 161.913 70.9625 162.441V167.602C71.3122 168.406 71.7743 169.134 72.3489 169.787C72.9234 170.415 73.5853 170.93 74.3347 171.332C75.084 171.708 75.8459 171.897 76.6202 171.897Z" fill="#97A4ED"/>
<path d="M101.166 174.044C100.817 174.22 100.379 174.408 99.8549 174.609C99.3304 174.81 98.7309 174.986 98.0564 175.137C97.407 175.287 96.7326 175.363 96.0332 175.363C95.1839 175.363 94.397 175.212 93.6727 174.911C92.9483 174.609 92.3613 174.132 91.9117 173.479C91.487 172.801 91.2747 171.934 91.2747 170.88V158.56H88.6894V155.358H91.2747V148.878H95.3962V155.358H99.6676V158.56H95.3962V169.561C95.4462 170.239 95.6585 170.741 96.0332 171.068C96.4328 171.394 96.9199 171.558 97.4944 171.558C98.0689 171.558 98.6185 171.457 99.143 171.256C99.6676 171.055 100.055 170.892 100.305 170.766L101.166 174.044Z" fill="#97A4ED"/>
<path d="M120.578 154.86C120.328 154.581 119.966 154.29 119.49 153.986C119.015 153.657 118.452 153.353 117.802 153.074C117.152 152.795 116.452 152.567 115.701 152.39C114.951 152.213 114.176 152.124 113.375 152.124C111.625 152.124 110.324 152.453 109.474 153.112C108.624 153.771 108.198 154.682 108.198 155.848C108.198 156.709 108.436 157.393 108.911 157.899C109.386 158.381 110.112 158.786 111.087 159.115C112.062 159.444 113.288 159.799 114.764 160.179C116.564 160.61 118.127 161.129 119.453 161.737C120.778 162.319 121.791 163.105 122.492 164.093C123.192 165.08 123.542 166.385 123.542 168.006C123.542 169.374 123.292 170.552 122.792 171.54C122.291 172.527 121.591 173.338 120.691 173.971C119.791 174.579 118.753 175.035 117.577 175.339C116.402 175.618 115.139 175.757 113.788 175.757C112.463 175.757 111.137 175.618 109.812 175.339C108.511 175.06 107.261 174.655 106.06 174.123C104.885 173.566 103.797 172.895 102.796 172.11L104.71 168.462C105.035 168.791 105.497 169.159 106.098 169.564C106.723 169.944 107.436 170.311 108.236 170.666C109.061 171.02 109.949 171.324 110.9 171.578C111.875 171.806 112.863 171.92 113.863 171.92C115.539 171.92 116.814 171.628 117.69 171.046C118.59 170.438 119.04 169.577 119.04 168.462C119.04 167.55 118.753 166.828 118.177 166.296C117.602 165.739 116.764 165.27 115.664 164.89C114.563 164.51 113.25 164.131 111.725 163.751C109.974 163.269 108.511 162.75 107.336 162.193C106.16 161.61 105.272 160.876 104.672 159.989C104.097 159.077 103.809 157.925 103.809 156.532C103.809 154.758 104.234 153.264 105.085 152.048C105.935 150.807 107.086 149.882 108.536 149.274C110.012 148.641 111.662 148.325 113.488 148.325C114.688 148.325 115.826 148.464 116.902 148.743C117.977 148.996 118.978 149.35 119.903 149.806C120.853 150.262 121.716 150.782 122.492 151.364L120.578 154.86Z" fill="#5E72E4"/>
<path d="M137.932 174.465C137.582 174.643 137.144 174.833 136.619 175.035C136.094 175.238 135.494 175.415 134.818 175.567C134.168 175.719 133.493 175.795 132.793 175.795C131.942 175.795 131.154 175.643 130.429 175.339C129.704 175.035 129.116 174.554 128.666 173.895C128.241 173.211 128.028 172.337 128.028 171.274V158.849H125.44V155.62H128.028V149.084H132.155V155.62H136.432V158.849H132.155V169.944C132.205 170.628 132.417 171.134 132.793 171.464C133.193 171.793 133.68 171.958 134.256 171.958C134.831 171.958 135.381 171.856 135.906 171.654C136.432 171.451 136.819 171.286 137.069 171.16L137.932 174.465Z" fill="#5E72E4"/>
<path d="M139.552 169.678C139.552 168.411 139.902 167.309 140.603 166.372C141.328 165.41 142.316 164.675 143.566 164.169C144.817 163.637 146.267 163.371 147.918 163.371C148.793 163.371 149.681 163.434 150.582 163.561C151.507 163.687 152.32 163.89 153.02 164.169V162.915C153.02 161.522 152.607 160.432 151.782 159.647C150.957 158.862 149.769 158.469 148.218 158.469C147.118 158.469 146.08 158.672 145.104 159.077C144.129 159.457 143.091 160.002 141.991 160.711L140.603 157.899C141.903 157.013 143.204 156.354 144.504 155.924C145.83 155.493 147.218 155.278 148.668 155.278C151.294 155.278 153.358 155.987 154.858 157.405C156.384 158.799 157.147 160.787 157.147 163.371V170.78C157.147 171.261 157.222 171.603 157.372 171.806C157.547 172.008 157.834 172.122 158.235 172.148V175.491C157.859 175.567 157.522 175.618 157.222 175.643C156.922 175.668 156.672 175.681 156.471 175.681C155.596 175.681 154.933 175.466 154.483 175.035C154.033 174.605 153.77 174.098 153.695 173.515L153.583 172.375C152.732 173.49 151.645 174.351 150.319 174.959C148.994 175.567 147.655 175.871 146.305 175.871C145.004 175.871 143.841 175.605 142.816 175.073C141.791 174.516 140.99 173.769 140.415 172.831C139.84 171.894 139.552 170.843 139.552 169.678ZM152.045 170.894C152.345 170.564 152.582 170.235 152.757 169.906C152.933 169.577 153.02 169.285 153.02 169.032V166.752C152.32 166.474 151.582 166.271 150.807 166.144C150.031 165.992 149.269 165.916 148.518 165.916C147.018 165.916 145.792 166.22 144.842 166.828C143.916 167.436 143.454 168.272 143.454 169.336C143.454 169.918 143.604 170.476 143.904 171.008C144.229 171.54 144.679 171.97 145.255 172.3C145.855 172.629 146.593 172.793 147.468 172.793C148.368 172.793 149.231 172.616 150.056 172.262C150.882 171.907 151.545 171.451 152.045 170.894Z" fill="#5E72E4"/>
<path d="M175.996 175.491L169.694 166.334L166.467 169.45V175.491H162.341V147.755H166.467V165.232L175.546 155.658H179.973L172.357 163.979L180.385 175.491H175.996Z" fill="#5E72E4"/>
<path d="M190.946 175.871C189.42 175.871 188.032 175.605 186.782 175.073C185.556 174.516 184.494 173.769 183.593 172.831C182.693 171.869 181.993 170.78 181.492 169.564C181.017 168.323 180.78 167.006 180.78 165.612C180.78 163.738 181.205 162.028 182.055 160.483C182.905 158.913 184.093 157.659 185.619 156.721C187.145 155.759 188.933 155.278 190.984 155.278C193.034 155.278 194.798 155.759 196.273 156.721C197.774 157.659 198.937 158.9 199.762 160.445C200.587 161.99 201 163.649 201 165.422C201 165.726 200.988 166.018 200.962 166.296C200.937 166.55 200.912 166.765 200.887 166.942H185.169C185.244 168.107 185.556 169.133 186.107 170.02C186.682 170.881 187.407 171.565 188.283 172.072C189.158 172.553 190.096 172.793 191.096 172.793C192.197 172.793 193.234 172.515 194.21 171.958C195.21 171.4 195.885 170.666 196.236 169.754L199.762 170.78C199.337 171.742 198.687 172.616 197.811 173.401C196.961 174.161 195.948 174.769 194.773 175.225C193.597 175.656 192.322 175.871 190.946 175.871ZM185.056 164.169H196.911C196.836 163.029 196.511 162.028 195.936 161.167C195.385 160.28 194.673 159.596 193.797 159.115C192.947 158.609 191.996 158.355 190.946 158.355C189.921 158.355 188.97 158.609 188.095 159.115C187.245 159.596 186.544 160.28 185.994 161.167C185.444 162.028 185.131 163.029 185.056 164.169Z" fill="#5E72E4"/>
</svg>
