<svg width="34" height="42" viewBox="0 0 34 42"  fill="none" style="padding:1.5px" xmlns="http://www.w3.org/2000/svg">
<path d="M22.21 1.01L32.2 11M8.44 19.48H24.76M8.44 31.58H24.76M8.44 25.53H24.76M2.95 1.01C2.42828 1.02305 1.93233 1.23951 1.568 1.61317C1.20367 1.98684 0.999837 2.48812 1 3.01V38.11C0.999837 38.6319 1.20367 39.1332 1.568 39.5068C1.93233 39.8805 2.42828 40.097 2.95 40.11H30.25C30.7804 40.11 31.2891 39.8993 31.6642 39.5242C32.0393 39.1491 32.25 38.6404 32.25 38.11V11H24.25C23.7283 10.987 23.2323 10.7705 22.868 10.3968C22.5037 10.0232 22.2998 9.52188 22.3 9V1L2.95 1.01Z" stroke="currentColor" stroke-width="4" stroke-linecap="round" stroke-linejoin="round"/>
</svg>
